{
  "source": "C:\\Users\\Peter\\Desktop\\stuff\\MIUN\\quantitative_research\\video_compression\\videos\\BVI-HD\\BVI-HD_CDVL_videos\\ORIG\\DiverFishAndRock_1920x1080_30fps.mp4",
  "output": "C:\\Users\\Peter\\Desktop\\stuff\\MIUN\\quantitative_research\\video_compression\\compressed_videos\\BVI-HD\\av1\\1.5\\DiverFishAndRock_1920x1080_30fps_av1.mkv",
  "codec": "av1",
  "ok": "Input #0, mov,mp4,m4a,3gp,3g2,mj2, from 'C:\\Users\\Peter\\Desktop\\stuff\\MIUN\\quantitative_research\\video_compression\\videos\\BVI-HD\\BVI-HD_CDVL_videos\\ORIG\\DiverFishAndRock_1920x1080_30fps.mp4':\n  Metadata:\n    major_brand     : isom\n    minor_version   : 512\n    compatible_brands: isomiso2avc1mp41\n    encoder         : Lavf54.28.101\n  Duration: 00:00:05.00, start: 0.000000, bitrate: 228854 kb/s\n  Stream #0:0[0x1](und): Video: h264 (High 4:4:4 Predictive) (avc1 / 0x31637661), yuv420p(progressive), 1920x1080, 228851 kb/s, 30 fps, 30 tbr, 30 tbn (default)\n    Metadata:\n      handler_name    : VideoHandler\n      vendor_id       : [0][0][0][0]\n[out#0/matroska @ 000001bcde620b80] Codec AVOption b:a (set bitrate (in bits/s)) has not been used for any stream. The most likely reason is either wrong type (e.g. a video option with no video streams) or that it is a private option of some decoder which was not actually used for any stream.\nStream mapping:\n  Stream #0:0 -> #0:0 (h264 (native) -> av1 (libsvtav1))\nPress [q] to stop, [?] for help\nSvt[info]: -------------------------------------------\nSvt[info]: SVT [version]:\tSVT-AV1 Encoder Lib v3.1.0-19-g6ecfe8ec\nSvt[info]: SVT [build]  :\tGCC 15.2.0\t 64 bit\nSvt[info]: LIB Build date: Aug 17 2025 11:37:13\nSvt[info]: -------------------------------------------\nSvt[info]: Level of Parallelism: 5\nSvt[info]: Number of PPCS 93\nSvt[info]: [asm level on system : up to avx2]\nSvt[info]: [asm level selected : up to avx2]\nSvt[info]: -------------------------------------------\nSvt[info]: SVT [config]: main profile\ttier (auto)\tlevel (auto)\nSvt[info]: SVT [config]: width / height / fps numerator / fps denominator \t\t: 1920 / 1080 / 30 / 1\nSvt[info]: SVT [config]: bit-depth / color format \t\t\t\t\t: 8 / YUV420\nSvt[info]: SVT [config]: preset / tune / pred struct \t\t\t\t\t: 4 / PSNR / random access\nSvt[info]: SVT [config]: gop size / mini-gop size / key-frame type \t\t\t: 161 / 16 / key frame\nSvt[info]: SVT [config]: BRC mode / target bitrate (kbps)\t\t\t\t: VBR / 1500 \nSvt[info]: SVT [config]: AQ mode / Variance Boost \t\t\t\t\t: 2 / 0\nSvt[info]: SVT [config]: sharpness / luminance-based QP bias \t\t\t\t: 0 / 0\nSvt[info]: SVT [config]: QP scale compress strength \t\t\t\t\t: 0\nSvt[info]: -------------------------------------------\nOutput #0, matroska, to 'C:\\Users\\Peter\\Desktop\\stuff\\MIUN\\quantitative_research\\video_compression\\compressed_videos\\BVI-HD\\av1\\1.5\\DiverFishAndRock_1920x1080_30fps_av1.mkv':\n  Metadata:\n    major_brand     : isom\n    minor_version   : 512\n    compatible_brands: isomiso2avc1mp41\n    encoder         : Lavf62.3.100\n  Stream #0:0(und): Video: av1 (AV01 / 0x31305641), yuv420p(tv, progressive), 1920x1080, q=2-31, 1500 kb/s, 30 fps, 1k tbn (default)\n    Metadata:\n      encoder         : Lavc62.11.100 libsvtav1\n      handler_name    : VideoHandler\n      vendor_id       : [0][0][0][0]\n    Side data:\n      cpb: bitrate max/min/avg: 0/0/1500000 buffer size: 1500000 vbv_delay: N/A\nframe=    0 fps=0.0 q=0.0 size=       0KiB time=N/A bitrate=N/A speed=N/A elapsed=0:00:01.06    \nframe=    0 fps=0.0 q=0.0 size=       0KiB time=N/A bitrate=N/A speed=N/A elapsed=0:00:01.89    \nframe=    0 fps=0.0 q=0.0 size=       0KiB time=N/A bitrate=N/A speed=N/A elapsed=0:00:02.50    \nframe=    0 fps=0.0 q=0.0 size=       0KiB time=N/A bitrate=N/A speed=N/A elapsed=0:00:03.14    \nframe=    0 fps=0.0 q=0.0 size=       0KiB time=N/A bitrate=N/A speed=N/A elapsed=0:00:03.72    \nframe=    1 fps=0.2 q=23.0 size=       1KiB time=00:00:00.00 bitrate=N/A speed=   0x elapsed=0:00:04.24    \nframe=    1 fps=0.2 q=23.0 size=       1KiB time=00:00:00.00 bitrate=N/A speed=   0x elapsed=0:00:04.81    \nframe=    1 fps=0.2 q=23.0 size=       1KiB time=00:00:00.00 bitrate=N/A speed=   0x elapsed=0:00:05.35    \nframe=    3 fps=0.5 q=43.0 size=       1KiB time=00:00:00.06 bitrate=  85.6kbits/s speed=0.0113x elapsed=0:00:05.91    \nframe=    7 fps=1.1 q=42.0 size=       1KiB time=00:00:00.20 bitrate=  28.5kbits/s speed=0.031x elapsed=0:00:06.44    \nframe=    8 fps=1.1 q=46.0 size=       1KiB time=00:00:00.23 bitrate=  24.4kbits/s speed=0.0335x elapsed=0:00:06.96    \nframe=   11 fps=1.5 q=41.0 size=       1KiB time=00:00:00.33 bitrate=  17.1kbits/s speed=0.0443x elapsed=0:00:07.52    \nframe=   13 fps=1.6 q=39.0 size=       1KiB time=00:00:00.40 bitrate=  14.3kbits/s speed=0.0495x elapsed=0:00:08.07    \nframe=   19 fps=2.2 q=41.0 size=       1KiB time=00:00:00.60 bitrate=   9.5kbits/s speed=0.0696x elapsed=0:00:08.62    \nframe=   21 fps=2.3 q=40.0 size=       1KiB time=00:00:00.66 bitrate=   8.6kbits/s speed=0.0729x elapsed=0:00:09.14    \nframe=   23 fps=2.4 q=39.0 size=       1KiB time=00:00:00.73 bitrate=   7.8kbits/s speed=0.0757x elapsed=0:00:09.68    \nframe=   26 fps=2.5 q=40.0 size=       1KiB time=00:00:00.83 bitrate=   6.8kbits/s speed=0.0812x elapsed=0:00:10.26    \nframe=   29 fps=2.7 q=38.0 size=       1KiB time=00:00:00.93 bitrate=   6.1kbits/s speed=0.0863x elapsed=0:00:10.81    \nframe=   33 fps=2.9 q=26.0 size=       1KiB time=00:00:01.06 bitrate=   5.3kbits/s speed=0.0941x elapsed=0:00:11.33    \nframe=   36 fps=3.0 q=42.0 size=       1KiB time=00:00:01.16 bitrate=   4.9kbits/s speed=0.0984x elapsed=0:00:11.85    \nframe=   38 fps=3.1 q=41.0 size=       1KiB time=00:00:01.23 bitrate=   4.6kbits/s speed=0.0997x elapsed=0:00:12.36    \nframe=   40 fps=3.1 q=41.0 size=       1KiB time=00:00:01.30 bitrate=   4.4kbits/s speed=0.101x elapsed=0:00:12.91    \nframe=   43 fps=3.2 q=41.0 size=       1KiB time=00:00:01.40 bitrate=   4.1kbits/s speed=0.104x elapsed=0:00:13.49    \nframe=   46 fps=3.3 q=44.0 size=       1KiB time=00:00:01.50 bitrate=   3.8kbits/s speed=0.107x elapsed=0:00:14.03    \nframe=   51 fps=3.5 q=44.0 size=       1KiB time=00:00:01.66 bitrate=   3.4kbits/s speed=0.114x elapsed=0:00:14.56    \nframe=   57 fps=3.8 q=37.0 size=       1KiB time=00:00:01.86 bitrate=   3.1kbits/s speed=0.124x elapsed=0:00:15.09    \nframe=   57 fps=3.6 q=37.0 size=       1KiB time=00:00:01.86 bitrate=   3.1kbits/s speed=0.119x elapsed=0:00:15.63    \nframe=   61 fps=3.8 q=39.0 size=       1KiB time=00:00:02.00 bitrate=   2.9kbits/s speed=0.123x elapsed=0:00:16.20    \nframe=   63 fps=3.7 q=42.0 size=       1KiB time=00:00:02.06 bitrate=   2.8kbits/s speed=0.123x elapsed=0:00:16.81    \nframe=   67 fps=3.8 q=44.0 size=       1KiB time=00:00:02.20 bitrate=   2.6kbits/s speed=0.126x elapsed=0:00:17.43    \nframe=   69 fps=3.8 q=42.0 size=       1KiB time=00:00:02.26 bitrate=   2.5kbits/s speed=0.126x elapsed=0:00:17.98    \nframe=   73 fps=3.9 q=38.0 size=       1KiB time=00:00:02.40 bitrate=   2.4kbits/s speed=0.13x elapsed=0:00:18.52    \nframe=   73 fps=3.8 q=38.0 size=       1KiB time=00:00:02.40 bitrate=   2.4kbits/s speed=0.126x elapsed=0:00:19.06    \nframe=   77 fps=3.9 q=39.0 size=       1KiB time=00:00:02.53 bitrate=   2.3kbits/s speed=0.129x elapsed=0:00:19.63    \nframe=   81 fps=4.0 q=28.0 size=       1KiB time=00:00:02.66 bitrate=   2.1kbits/s speed=0.132x elapsed=0:00:20.17    \nframe=   85 fps=4.1 q=42.0 size=       1KiB time=00:00:02.80 bitrate=   2.0kbits/s speed=0.135x elapsed=0:00:20.71    \nframe=   89 fps=4.2 q=38.0 size=       1KiB time=00:00:02.93 bitrate=   1.9kbits/s speed=0.138x elapsed=0:00:21.24    \nframe=   93 fps=4.3 q=39.0 size=       1KiB time=00:00:03.06 bitrate=   1.9kbits/s speed=0.141x elapsed=0:00:21.77    \nframe=   99 fps=4.4 q=44.0 size=       1KiB time=00:00:03.26 bitrate=   1.7kbits/s speed=0.146x elapsed=0:00:22.30    \nframe=  105 fps=4.6 q=38.0 size=       1KiB time=00:00:03.46 bitrate=   1.6kbits/s speed=0.152x elapsed=0:00:22.82    \nframe=  105 fps=4.5 q=38.0 size=       1KiB time=00:00:03.46 bitrate=   1.6kbits/s speed=0.148x elapsed=0:00:23.34    \nframe=  109 fps=4.6 q=38.0 size=       1KiB time=00:00:03.60 bitrate=   1.6kbits/s speed=0.151x elapsed=0:00:23.86    \nframe=  115 fps=4.7 q=43.0 size=       1KiB time=00:00:03.80 bitrate=   1.5kbits/s speed=0.156x elapsed=0:00:24.39    \nframe=  119 fps=4.8 q=40.0 size=       1KiB time=00:00:03.93 bitrate=   1.5kbits/s speed=0.158x elapsed=0:00:24.91    \nframe=  121 fps=4.8 q=37.0 size=       1KiB time=00:00:04.00 bitrate=   1.4kbits/s speed=0.157x elapsed=0:00:25.42    \nframe=  127 fps=4.9 q=43.0 size=       1KiB time=00:00:04.20 bitrate=   1.4kbits/s speed=0.162x elapsed=0:00:25.93    \nframe=  133 fps=5.0 q=45.0 size=       1KiB time=00:00:04.40 bitrate=   1.3kbits/s speed=0.166x elapsed=0:00:26.46    \nframe=  137 fps=5.1 q=40.0 size=       1KiB time=00:00:04.53 bitrate=   1.3kbits/s speed=0.168x elapsed=0:00:26.96    \nframe=  141 fps=5.1 q=45.0 size=       1KiB time=00:00:04.66 bitrate=   1.2kbits/s speed=0.17x elapsed=0:00:27.48    \n[out#0/matroska @ 000001bcde620b80] video:968KiB audio:0KiB subtitle:0KiB other streams:0KiB global headers:0KiB muxing overhead: 0.145946%\nframe=  150 fps=5.4 q=45.0 Lsize=     969KiB time=00:00:04.96 bitrate=1598.2kbits/s speed=0.18x elapsed=0:00:27.63    \n",
  "seconds": 28.115266799926758,
  "probe_out": {}
}